<svg width="123" height="42" viewBox="0 0 123 42" fill="none" xmlns="http://www.w3.org/2000/svg">
<path d="M1.90737 2.00621C11.795 2.55145 21.6826 3.09669 31.5703 3.64194C42.7111 4.25629 55.0605 4.42201 62.9215 13.2005C69.3549 20.3849 79.2364 33.4142 66.798 39.2525C63.6282 40.7403 56.6379 39.5787 53.2212 39.0072C48.5452 38.225 47.5382 32.5319 47.7467 28.7503C47.9617 24.8525 53.926 22.7891 57.1945 21.7212C65.5813 18.9809 74.6009 16.5599 83.4718 15.7879C89.4426 15.2682 95.7938 16.2436 101.772 16.5733C107.185 16.8718 114.894 15.8402 119.795 18.3501C124.463 20.741 116.474 18.2623 114.82 17.2928C109.653 14.2651 103.928 12.6054 98.6753 9.85909C97.0041 8.98539 106.544 13.2703 108.964 13.9498C110.793 14.4634 117.299 16.5813 117.692 18.9612C118.261 22.4087 106.456 22.9151 106.182 27.89" stroke="black" stroke-width="3" stroke-linecap="round"/>
</svg>
